HIERARCHY
ROOT hip
{
  OFFSET 0 0 0
  CHANNELS 6 Xposition Yposition Zposition Zrotation Yrotation Xrotation
  JOINT abdomen
  {
    OFFSET 0 20.6881 -0.73152
    CHANNELS 3 Zrotation Xrotation Yrotation
    JOINT chest
    {
      OFFSET 0 11.7043 -0.48768
      CHANNELS 3 Zrotation Xrotation Yrotation
      JOINT neck
      {
        OFFSET 0 22.1894 -2.19456
        CHANNELS 3 Zrotation Xrotation Yrotation
        JOINT head
        {
          OFFSET -0.24384 7.07133 1.2192
          CHANNELS 3 Zrotation Xrotation Yrotation
          JOINT leftEye
          {
            OFFSET 4.14528 8.04674 8.04672
            CHANNELS 3 Zrotation Xrotation Yrotation
            End Site
            {
              OFFSET 1 0 0
            }
          }
          JOINT rightEye
          {
            OFFSET -3.6576 8.04674 8.04672
            CHANNELS 3 Zrotation Xrotation Yrotation
            End Site
            {
              OFFSET 1 0 0
            }
          }
        }
      }
      JOINT rCollar
      {
        OFFSET -2.68224 19.2634 -4.8768
        CHANNELS 3 Zrotation Xrotation Yrotation
        JOINT rShldr
        {
          OFFSET -8.77824 -1.95073 1.46304
          CHANNELS 3 Zrotation Xrotation Yrotation
          JOINT rForeArm
          {
            OFFSET -28.1742 -1.7115 0.48768
            CHANNELS 3 Zrotation Xrotation Yrotation
            JOINT rHand
            {
              OFFSET -22.5879 0.773209 7.07136
              CHANNELS 3 Zrotation Xrotation Yrotation
              JOINT rThumb1
              {
                OFFSET -1.2192 -0.487915 3.41376
                CHANNELS 3 Zrotation Xrotation Yrotation
                JOINT rThumb2
                {
                  OFFSET -3.37035 -0.52449 3.41376
                  CHANNELS 3 Zrotation Xrotation Yrotation
                  End Site
                  {
                    OFFSET -1.78271 -1.18214 1.43049
                  }
                }
              }
              JOINT rIndex1
              {
                OFFSET -7.75947 0.938293 5.60832
                CHANNELS 3 Zrotation Xrotation Yrotation
                JOINT rIndex2
                {
                  OFFSET -2.54057 -0.884171 1.56538
                  CHANNELS 3 Zrotation Xrotation Yrotation
                  End Site
                  {
                    OFFSET -1.62519 -0.234802 1.16502
                  }
                }
              }
              JOINT rMid1
              {
                OFFSET -8.24714 1.18213 3.41376
                CHANNELS 3 Zrotation Xrotation Yrotation
                JOINT rMid2
                {
                  OFFSET -3.10165 -0.590103 1.0647
                  CHANNELS 3 Zrotation Xrotation Yrotation
                  End Site
                  {
                    OFFSET -2.48547 -0.328903 0.83742
                  }
                }
              }
              JOINT rRing1
              {
                OFFSET -8.82822 0.546677 1.51678
                CHANNELS 3 Zrotation Xrotation Yrotation
                JOINT rRing2
                {
                  OFFSET -2.60934 -0.819778 -0.0198488
                  CHANNELS 3 Zrotation Xrotation Yrotation
                  End Site
                  {
                    OFFSET -2.33842 -0.294052 0.168128
                  }
                }
              }
              JOINT rPinky1
              {
                OFFSET -8.27202 -0.0477905 -0.4584
                CHANNELS 3 Zrotation Xrotation Yrotation
                JOINT rPinky2
                {
                  OFFSET -1.82734 -0.647385 -0.700984
                  CHANNELS 3 Zrotation Xrotation Yrotation
                  End Site
                  {
                    OFFSET -1.69225 -0.51767 -0.607171
                  }
                }
              }
            }
          }
        }
      }
      JOINT lCollar
      {
        OFFSET 2.68224 19.2634 -4.8768
        CHANNELS 3 Zrotation Xrotation Yrotation
        JOINT lShldr
        {
          OFFSET 8.77824 -1.95073 1.46304
          CHANNELS 3 Zrotation Xrotation Yrotation
          JOINT lForeArm
          {
            OFFSET 28.1742 -1.7115 0.48768
            CHANNELS 3 Zrotation Xrotation Yrotation
            JOINT lHand
            {
              OFFSET 22.5879 0.773209 7.07136
              CHANNELS 3 Zrotation Xrotation Yrotation
              JOINT lThumb1
              {
                OFFSET 1.2192 -0.487915 3.41376
                CHANNELS 3 Zrotation Xrotation Yrotation
                JOINT lThumb2
                {
                  OFFSET 3.37035 -0.52449 3.41376
                  CHANNELS 3 Zrotation Xrotation Yrotation
                  End Site
                  {
                    OFFSET 1.78271 -1.18214 1.43049
                  }
                }
              }
              JOINT lIndex1
              {
                OFFSET 7.75947 0.938293 5.60832
                CHANNELS 3 Zrotation Xrotation Yrotation
                JOINT lIndex2
                {
                  OFFSET 2.54057 -0.884171 1.56538
                  CHANNELS 3 Zrotation Xrotation Yrotation
                  End Site
                  {
                    OFFSET 1.62519 -0.234802 1.16502
                  }
                }
              }
              JOINT lMid1
              {
                OFFSET 8.24714 1.18213 3.41376
                CHANNELS 3 Zrotation Xrotation Yrotation
                JOINT lMid2
                {
                  OFFSET 3.10165 -0.590103 1.0647
                  CHANNELS 3 Zrotation Xrotation Yrotation
                  End Site
                  {
                    OFFSET 2.48547 -0.328903 0.83742
                  }
                }
              }
              JOINT lRing1
              {
                OFFSET 8.82822 0.546677 1.51678
                CHANNELS 3 Zrotation Xrotation Yrotation
                JOINT lRing2
                {
                  OFFSET 2.60934 -0.819778 -0.0198488
                  CHANNELS 3 Zrotation Xrotation Yrotation
                  End Site
                  {
                    OFFSET 2.33842 -0.294052 0.168128
                  }
                }
              }
              JOINT lPinky1
              {
                OFFSET 8.27202 -0.0477905 -0.4584
                CHANNELS 3 Zrotation Xrotation Yrotation
                JOINT lPinky2
                {
                  OFFSET 1.82734 -0.647385 -0.700984
                  CHANNELS 3 Zrotation Xrotation Yrotation
                  End Site
                  {
                    OFFSET 1.69225 -0.51767 -0.607171
                  }
                }
              }
            }
          }
        }
      }
    }
  }
  JOINT rButtock
  {
    OFFSET -8.77824 4.35084 1.2192
    CHANNELS 3 Zrotation Xrotation Yrotation
    JOINT rThigh
    {
      OFFSET 0 -1.70687 -2.19456
      CHANNELS 3 Zrotation Xrotation Yrotation
      JOINT rShin
      {
        OFFSET 0 -36.8199 0.73152
        CHANNELS 3 Zrotation Xrotation Yrotation
        JOINT rFoot
        {
          OFFSET 0.73152 -45.1104 -5.12064
          CHANNELS 3 Zrotation Xrotation Yrotation
          End Site
          {
            OFFSET -1.1221 -3.69964 12.103
          }
        }
      }
    }
  }
  JOINT lButtock
  {
    OFFSET 8.77824 4.35084 1.2192
    CHANNELS 3 Zrotation Xrotation Yrotation
    JOINT lThigh
    {
      OFFSET 0 -1.70687 -2.19456
      CHANNELS 3 Zrotation Xrotation Yrotation
      JOINT lShin
      {
        OFFSET 0 -36.8199 0.73152
        CHANNELS 3 Zrotation Xrotation Yrotation
        JOINT lFoot
        {
          OFFSET -0.73152 -45.1104 -5.12064
          CHANNELS 3 Zrotation Xrotation Yrotation
          End Site
          {
            OFFSET 1.1221 -3.69964 12.103
          }
        }
      }
    }
  }
}
MOTION
Frames:	4
Frame Time:	0.03333
-1.8650456384307168 60.54320661434323 -95.30111028808929 -17.23809814453125 -25.673892974853516 13.405510902404785 13.157015800476074 7.856678485870361 7.8042521476745605 -0.046796347945928574 -7.733363151550293 2.235241174697876 -3.645223379135132 13.908369064331055 -2.444258689880371 7.839203357696533 -19.317384719848633 -2.8846960067749023 0.44827738404273987 -0.31707265973091125 -0.07896334677934647 -0.3161262273788452 -0.05924025923013687 -0.08556978404521942 -0.2993655502796173 0.5982973575592041 0.33255404233932495 73.69935607910156 37.939205169677734 -11.164006233215332 -18.57459831237793 -11.97066593170166 34.116065979003906 -0.1146702691912651 13.794881820678711 2.1268155574798584 0.028035001829266548 0.1270829290151596 0.05893127992749214 0.12747466564178467 -0.21906770765781403 0.12775084376335144 0.13741105794906616 0.3573914170265198 0.3198774755001068 7.602177143096924 5.2068352699279785 0.05498714745044708 -0.08136624842882156 0.4630037844181061 -0.5048673748970032 3.0470633506774902 0.9057666063308716 0.257490336894989 0.11698474735021591 0.06188049167394638 0.040717221796512604 10.893440246582031 0.5393873453140259 0.41334736347198486 0.07051180303096771 -0.24395930767059326 0.03256268799304962 2.482578754425049 -1.0560768842697144 -0.38325127959251404 -0.16368703544139862 0.3360599875450134 -0.045747872442007065 -73.05513000488281 20.71376609802246 -7.136081218719482 13.090461730957031 -5.385666370391846 -22.69873809814453 0.26482123136520386 14.618450164794922 -1.7851828336715698 0.0649123564362526 -0.5235220193862915 0.11464354395866394 -0.2089061737060547 0.353208988904953 0.05109842121601105 -0.10565894097089767 0.4358988404273987 -0.13734854757785797 -8.149670600891113 5.172788143157959 -0.31037935614585876 0.305777907371521 -0.24050800502300262 -0.3911524713039398 -3.070876359939575 0.9201393723487854 -0.2826549708843231 -0.09058721363544464 -0.17028003931045532 -0.17285998165607452 -10.513482093811035 0.6180312037467957 0.08835328370332718 -0.12037991732358932 0.1836773306131363 -0.18033044040203094 -1.8917316198349 -0.4514206349849701 0.2953285574913025 -0.2427985966205597 0.20125967264175415 0.20503650605678558 -0.47100168466567993 10.132609367370605 -6.049739360809326 0.28941380977630615 34.49427032470703 2.0831258296966553 -12.102127075195312 -18.85628890991211 -31.938629150390625 0.12084155529737473 -0.059160999953746796 0.30496013164520264 73.24442291259766 -58.124176025390625 64.4809341430664 2.881007432937622 75.32742309570312 -3.5441133975982666 1.360018253326416 -5.271730899810791 3.599897623062134
-1.8705682732614952 60.560309408024935 -95.53293533953428 -17.235942840576172 -25.694257736206055 13.349825859069824 13.152443885803223 7.885238170623779 7.803964614868164 -0.04444998875260353 -7.732782363891602 2.2370052337646484 -3.6457624435424805 13.908082962036133 -2.443054437637329 7.83945369720459 -19.32172966003418 -2.878312349319458 0.448202908039093 -0.31617385149002075 -0.07573330402374268 -0.3161865472793579 -0.055279262363910675 -0.0825350433588028 -0.2993599772453308 0.5990217328071594 0.33629950881004333 73.69960021972656 37.950889587402344 -11.157126426696777 -18.57985496520996 -11.978034019470215 34.120452880859375 -0.11492934823036194 13.746482849121094 2.116421699523926 0.029188375920057297 0.1275610774755478 0.06264232099056244 0.12816324830055237 -0.2203851044178009 0.1307917833328247 0.13740408420562744 0.35594502091407776 0.3170902729034424 7.604665756225586 5.208970546722412 0.05417905002832413 -0.0822921097278595 0.46867287158966064 -0.503438413143158 3.0487723350524902 0.9049596786499023 0.25890758633613586 0.11554568260908127 0.05926243215799332 0.042250148952007294 10.893917083740234 0.5378239154815674 0.4120989143848419 0.07356051355600357 -0.24599282443523407 0.029959453269839287 2.4837520122528076 -1.0529942512512207 -0.3829841911792755 -0.16527296602725983 0.33649441599845886 -0.045922357589006424 -73.06959533691406 20.717655181884766 -7.139398097991943 13.086380958557129 -5.394465446472168 -22.674560546875 0.26888930797576904 14.610016822814941 -1.7850302457809448 0.06462496519088745 -0.5228530764579773 0.1153302937746048 -0.20716731250286102 0.35234832763671875 0.05149122327566147 -0.10759365558624268 0.43214094638824463 -0.13975322246551514 -8.149311065673828 5.170224189758301 -0.3085099160671234 0.3061262369155884 -0.24095992743968964 -0.38840174674987793 -3.0719292163848877 0.9202549457550049 -0.2799254059791565 -0.09175438433885574 -0.16916784644126892 -0.17158950865268707 -10.513739585876465 0.6174184679985046 0.08784174174070358 -0.12228580564260483 0.18284624814987183 -0.18209463357925415 -1.8902499675750732 -0.45196372270584106 0.29409855604171753 -0.24408338963985443 0.20185942947864532 0.209167018532753 -0.4634864032268524 10.126981735229492 -6.043178081512451 0.2877853512763977 34.5013542175293 2.0806705951690674 -12.122834205627441 -18.868167877197266 -31.963579177856445 0.12250693142414093 -0.060075145214796066 0.3045627772808075 73.20967864990234 -58.128807067871094 64.4183349609375 2.8544163703918457 75.26172637939453 -3.515702247619629 1.3477497100830078 -5.227141857147217 3.555393934249878
-1.8775471791285143 60.57685212619471 -95.76639910277154 -17.23787498474121 -25.716293334960938 13.2971773147583 13.154674530029297 7.911845684051514 7.804847717285156 -0.04251958057284355 -7.731746673583984 2.2390198707580566 -3.6455156803131104 13.90737533569336 -2.4402830600738525 7.838678359985352 -19.327089309692383 -2.868408203125 0.4480058550834656 -0.3152870535850525 -0.07251285016536713 -0.3161856234073639 -0.05127127468585968 -0.07949302345514297 -0.2991718649864197 0.5998036861419678 0.3394431173801422 73.69926452636719 37.96061706542969 -11.151276588439941 -18.583860397338867 -11.984305381774902 34.1215705871582 -0.11526811122894287 13.700976371765137 2.106416702270508 0.030486037954688072 0.1281696856021881 0.06635037809610367 0.12913963198661804 -0.22160214185714722 0.133990079164505 0.13710570335388184 0.3546770215034485 0.31436043977737427 7.607247829437256 5.211070537567139 0.053577929735183716 -0.08315885812044144 0.4743661880493164 -0.5020686984062195 3.050388813018799 0.9042271375656128 0.2606475353240967 0.11401190608739853 0.05662669613957405 0.04365865886211395 10.89410400390625 0.5362998247146606 0.4105975031852722 0.0764283612370491 -0.2475629448890686 0.027540773153305054 2.4849488735198975 -1.0495691299438477 -0.3826180696487427 -0.16676294803619385 0.33681708574295044 -0.045935600996017456 -73.08495330810547 20.72475814819336 -7.144533634185791 13.08267879486084 -5.40297269821167 -22.651334762573242 0.272470623254776 14.602267265319824 -1.7849613428115845 0.06435581296682358 -0.5221545696258545 0.11608069390058517 -0.20546290278434753 0.3514731526374817 0.051548901945352554 -0.10915225744247437 0.4283287525177002 -0.14203062653541565 -8.148630142211914 5.167654991149902 -0.3067552149295807 0.3064285218715668 -0.24142885208129883 -0.3857537508010864 -3.0731418132781982 0.92059326171875 -0.2770523726940155 -0.09275826066732407 -0.16796191036701202 -0.17041611671447754 -10.51387882232666 0.6167421340942383 0.08707743138074875 -0.1238180547952652 0.18179330229759216 -0.18413837254047394 -1.8888219594955444 -0.4526890516281128 0.2926417589187622 -0.2452748566865921 0.20238374173641205 0.21318520605564117 -0.45493224263191223 10.12905216217041 -6.042269706726074 0.2862861156463623 34.49711227416992 2.078599452972412 -12.145476341247559 -18.87932777404785 -31.993446350097656 0.12449631094932556 -0.06087430939078331 0.30412161350250244 73.18648529052734 -58.12950897216797 64.36970520019531 2.829087257385254 75.20323181152344 -3.488672971725464 1.3356428146362305 -5.186964988708496 3.5071256160736084
-1.885866242815884 60.59272548582582 -96.00086498282609 -17.243911743164062 -25.739835739135742 13.248149871826172 13.163710594177246 7.936254501342773 7.806912899017334 -0.0410279780626297 -7.730252265930176 2.2412993907928467 -3.644470453262329 13.906235694885254 -2.435927629470825 7.83687686920166 -19.33344841003418 -2.855010747909546 0.44769519567489624 -0.31443333625793457 -0.06932531297206879 -0.31612950563430786 -0.047245487570762634 -0.07646724581718445 -0.2988164722919464 0.6006345152854919 0.34195613861083984 73.69828033447266 37.968265533447266 -11.146337509155273 -18.586549758911133 -11.989407539367676 34.11933135986328 -0.11567750573158264 13.658719062805176 2.096884250640869 0.0319133922457695 0.12891344726085663 0.07003196328878403 0.13040080666542053 -0.22271090745925903 0.13731947541236877 0.13652102649211884 0.3536008596420288 0.3117145597934723 7.6098952293396 5.213107585906982 0.053184594959020615 -0.08396435528993607 0.4800322353839874 -0.5007725358009338 3.051914930343628 0.9035807251930237 0.2626969516277313 0.11239531636238098 0.05397903546690941 0.044921696186065674 10.893993377685547 0.534835696220398 0.4088556170463562 0.07909058779478073 -0.24866023659706116 0.025326326489448547 2.486156702041626 -1.0458335876464844 -0.382161945104599 -0.1681397706270218 0.3370305895805359 -0.045795656740665436 -73.10105895996094 20.73500633239746 -7.151641845703125 13.079360008239746 -5.411105155944824 -22.62914276123047 0.2755323350429535 14.59538745880127 -1.7849856615066528 0.06411002576351166 -0.5214232206344604 0.11688090115785599 -0.20382635295391083 0.35059237480163574 0.0512792244553566 -0.11032108217477798 0.4244822859764099 -0.14416572451591492 -8.147637367248535 5.165096759796143 -0.3051314651966095 0.3066750168800354 -0.2419188767671585 -0.38323670625686646 -3.0744991302490234 0.9211680889129639 -0.2740659713745117 -0.09359310567378998 -0.16666947305202484 -0.16935601830482483 -10.513909339904785 0.615995466709137 0.08605922013521194 -0.12496107071638107 0.18052799999713898 -0.1864325851202011 -1.8874560594558716 -0.4535806179046631 0.29096442461013794 -0.24636951088905334 0.20282553136348724 0.2170671969652176 -0.44547373056411743 10.138911247253418 -6.047139644622803 0.28493016958236694 34.4814338684082 2.0769381523132324 -12.169821739196777 -18.889583587646484 -32.02791976928711 0.12679758667945862 -0.06155405566096306 0.303634911775589 73.17514038085938 -58.12614822387695 64.33573913574219 2.80521821975708 75.15260314941406 -3.4632484912872314 1.3238554000854492 -5.151724338531494 3.4555723667144775
